<svg width="25" height="25" viewBox="0 0 25 25" fill="none" xmlns="http://www.w3.org/2000/svg">
<mask id="path-1-inside-1_141_445" fill="white">
<path fill-rule="evenodd" clip-rule="evenodd" d="M12.62 3.80176C10.3615 3.80176 8.30402 4.54776 7.08652 5.15726C6.97652 5.21226 6.87385 5.26592 6.77852 5.31826C6.58952 5.42126 6.42852 5.51726 6.30052 5.60176L7.68552 7.64076L8.33752 7.90026C10.8855 9.18576 14.3025 9.18576 16.851 7.90026L17.591 7.51626L18.9005 5.60176C18.629 5.42531 18.3469 5.26552 18.056 5.12326C16.8445 4.52026 14.836 3.80176 12.6205 3.80176M9.39952 6.10976C8.90918 6.01748 8.42482 5.89593 7.94902 5.74576C9.08952 5.23926 10.789 4.70176 12.6205 4.70176C13.889 4.70176 15.0885 4.95976 16.0805 5.28676C14.918 5.45026 13.6775 5.72776 12.4955 6.06926C11.5655 6.33826 10.4785 6.30926 9.39952 6.10976ZM17.3795 8.64176L17.2565 8.70376C14.4535 10.1178 10.7355 10.1178 7.93252 8.70376L7.81602 8.64476C3.60452 13.2653 0.389516 21.8003 12.62 21.8003C24.8505 21.8003 21.5575 13.1068 17.3795 8.64176ZM12.1005 12.8018C11.8353 12.8018 11.5809 12.9071 11.3934 13.0947C11.2059 13.2822 11.1005 13.5365 11.1005 13.8018C11.1005 14.067 11.2059 14.3213 11.3934 14.5089C11.5809 14.6964 11.8353 14.8018 12.1005 14.8018V12.8018ZM13.1005 11.8018V11.3018H12.1005V11.8018C11.5701 11.8018 11.0614 12.0125 10.6863 12.3875C10.3112 12.7626 10.1005 13.2713 10.1005 13.8018C10.1005 14.3322 10.3112 14.8409 10.6863 15.216C11.0614 15.591 11.5701 15.8018 12.1005 15.8018V17.8018C11.6655 17.8018 11.295 17.5243 11.157 17.1353C11.1365 17.0716 11.1035 17.0127 11.0599 16.9621C11.0163 16.9114 10.9629 16.87 10.903 16.8403C10.8431 16.8107 10.7778 16.7933 10.7111 16.7893C10.6444 16.7853 10.5775 16.7947 10.5145 16.8169C10.4514 16.8392 10.3935 16.8739 10.3441 16.919C10.2947 16.964 10.2549 17.0185 10.2269 17.0792C10.1989 17.14 10.1834 17.2057 10.1813 17.2725C10.1792 17.3393 10.1905 17.4059 10.2145 17.4683C10.3524 17.8583 10.6078 18.196 10.9456 18.4348C11.2833 18.6736 11.6868 18.8018 12.1005 18.8018V19.3018H13.1005V18.8018C13.6309 18.8018 14.1397 18.591 14.5147 18.216C14.8898 17.8409 15.1005 17.3322 15.1005 16.8018C15.1005 16.2713 14.8898 15.7626 14.5147 15.3875C14.1397 15.0125 13.6309 14.8018 13.1005 14.8018V12.8018C13.5355 12.8018 13.906 13.0793 14.044 13.4683C14.0645 13.5319 14.0975 13.5908 14.1412 13.6414C14.1848 13.6921 14.2381 13.7335 14.298 13.7632C14.3579 13.7928 14.4232 13.8102 14.4899 13.8142C14.5567 13.8182 14.6235 13.8088 14.6866 13.7866C14.7496 13.7643 14.8075 13.7296 14.8569 13.6846C14.9063 13.6395 14.9462 13.585 14.9741 13.5243C15.0021 13.4636 15.0176 13.3978 15.0197 13.331C15.0219 13.2642 15.0106 13.1976 14.9865 13.1353C14.8487 12.7452 14.5933 12.4075 14.2555 12.1687C13.9177 11.9299 13.5142 11.8017 13.1005 11.8018ZM13.1005 15.8018V17.8018C13.3657 17.8018 13.6201 17.6964 13.8076 17.5089C13.9952 17.3213 14.1005 17.067 14.1005 16.8018C14.1005 16.5365 13.9952 16.2822 13.8076 16.0947C13.6201 15.9071 13.3657 15.8018 13.1005 15.8018Z"/>
</mask>
<path d="M7.08652 5.15726L7.45919 5.90261L7.45956 5.90243L7.08652 5.15726ZM6.77852 5.31826L7.17729 6.04999L7.17953 6.04876L6.77852 5.31826ZM6.30052 5.60176L5.84141 4.9063L5.13672 5.3715L5.61117 6.07L6.30052 5.60176ZM7.68552 7.64076L6.99617 8.109L7.13982 8.32048L7.37736 8.41502L7.68552 7.64076ZM8.33752 7.90026L8.71288 7.15625L8.67995 7.13964L8.64568 7.126L8.33752 7.90026ZM16.851 7.90026L17.2263 8.64434L17.2348 8.63993L16.851 7.90026ZM17.591 7.51626L17.9748 8.25593L18.1607 8.15951L18.2788 7.98672L17.591 7.51626ZM18.9005 5.60176L19.5883 6.07222L20.0701 5.3679L19.3546 4.90298L18.9005 5.60176ZM18.056 5.12326L17.6847 5.86931L17.6899 5.87188L18.056 5.12326ZM9.39952 6.10976L9.24539 6.92872L9.24801 6.9292L9.39952 6.10976ZM7.94902 5.74576L7.61078 4.98415L5.5986 5.87777L7.6982 6.54045L7.94902 5.74576ZM16.0805 5.28676L16.1966 6.11197L16.3414 4.49532L16.0805 5.28676ZM12.4955 6.06926L12.2642 5.26867L12.264 5.26874L12.4955 6.06926ZM17.3795 8.64176L17.988 8.07238L17.5616 7.61674L17.0044 7.89762L17.3795 8.64176ZM17.2565 8.70376L16.8814 7.95962L16.8812 7.95973L17.2565 8.70376ZM7.93252 8.70376L7.55601 9.44719L7.55719 9.44778L7.93252 8.70376ZM7.81602 8.64476L8.19252 7.90133L7.62709 7.61497L7.20013 8.08339L7.81602 8.64476ZM12.1005 12.8018H12.9338V11.9684H12.1005V12.8018ZM12.1005 14.8018V15.6351H12.9338V14.8018H12.1005ZM13.1005 11.8018H12.2672V12.6352L13.1007 12.6351L13.1005 11.8018ZM13.1005 11.3018H13.9338V10.4684H13.1005V11.3018ZM12.1005 11.3018V10.4684H11.2672V11.3018H12.1005ZM12.1005 11.8018V12.6351H12.9338V11.8018H12.1005ZM12.1005 15.8018H12.9338V14.9684H12.1005V15.8018ZM12.1005 17.8018V18.6351H12.9338V17.8018H12.1005ZM11.157 17.1353L10.3637 17.3905L10.3675 17.4022L10.3716 17.4139L11.157 17.1353ZM10.2145 17.4683L11.0002 17.1905L10.9963 17.1795L10.9921 17.1685L10.2145 17.4683ZM12.1005 18.8018H12.9338V17.9683L12.1004 17.9684L12.1005 18.8018ZM12.1005 19.3018H11.2672V20.1351H12.1005V19.3018ZM13.1005 19.3018V20.1351H13.9338V19.3018H13.1005ZM13.1005 18.8018V17.9684H12.2672V18.8018H13.1005ZM13.1005 14.8018H12.2672V15.6351H13.1005V14.8018ZM13.1005 12.8018V11.9684H12.2672V12.8018H13.1005ZM14.044 13.4683L14.8373 13.213L14.8335 13.2013L14.8294 13.1896L14.044 13.4683ZM14.9865 13.1353L14.2008 13.413L14.2047 13.4241L14.209 13.435L14.9865 13.1353ZM13.1005 15.8018V14.9684H12.2672V15.8018H13.1005ZM13.1005 17.8018H12.2672V18.6351H13.1005V17.8018ZM12.62 3.80176V2.96842C10.1921 2.96842 8.00487 3.76559 6.71347 4.41209L7.08652 5.15726L7.45956 5.90243C8.60317 5.32992 10.5309 4.63509 12.62 4.63509V3.80176ZM7.08652 5.15726L6.71384 4.4119C6.59551 4.47107 6.4833 4.52968 6.37751 4.58775L6.77852 5.31826L7.17953 6.04876C7.2644 6.00217 7.35752 5.95345 7.45919 5.90261L7.08652 5.15726ZM6.77852 5.31826L6.37974 4.58653C6.17564 4.69776 5.99362 4.80582 5.84141 4.9063L6.30052 5.60176L6.75963 6.29722C6.86342 6.2287 7.00339 6.14475 7.17729 6.04999L6.77852 5.31826ZM6.30052 5.60176L5.61117 6.07L6.99617 8.109L7.68552 7.64076L8.37486 7.17252L6.98986 5.13352L6.30052 5.60176ZM7.68552 7.64076L7.37736 8.41502L8.02936 8.67452L8.33752 7.90026L8.64568 7.126L7.99368 6.8665L7.68552 7.64076ZM8.33752 7.90026L7.96215 8.64427C10.7462 10.0489 14.4418 10.0488 17.2263 8.6443L16.851 7.90026L16.4757 7.15622C14.1632 8.32267 11.0248 8.32264 8.71288 7.15625L8.33752 7.90026ZM16.851 7.90026L17.2348 8.63993L17.9748 8.25593L17.591 7.51626L17.2072 6.77658L16.4672 7.16058L16.851 7.90026ZM17.591 7.51626L18.2788 7.98672L19.5883 6.07222L18.9005 5.60176L18.2127 5.13129L16.9032 7.04579L17.591 7.51626ZM18.9005 5.60176L19.3546 4.90298C19.0547 4.70815 18.7433 4.53171 18.4221 4.37463L18.056 5.12326L17.6899 5.87188C17.9506 5.99932 18.2032 6.14247 18.4465 6.30054L18.9005 5.60176ZM18.056 5.12326L18.4273 4.37723C17.1407 3.73685 15.0034 2.96842 12.6205 2.96842V3.80176V4.63509C14.6687 4.63509 16.5483 5.30367 17.6847 5.86929L18.056 5.12326ZM9.39952 6.10976L9.55364 5.2908C9.09599 5.20468 8.64392 5.09123 8.19984 4.95107L7.94902 5.74576L7.6982 6.54045C8.20572 6.70063 8.72237 6.83029 9.2454 6.92872L9.39952 6.10976ZM7.94902 5.74576L8.28725 6.50736C9.35979 6.03104 10.9414 5.53509 12.6205 5.53509V4.70176V3.86842C10.6367 3.86842 8.81924 4.44747 7.61078 4.98415L7.94902 5.74576ZM12.6205 4.70176V5.53509C13.7795 5.53509 14.8894 5.77155 15.8196 6.0782L16.0805 5.28676L16.3414 4.49532C15.2877 4.14796 13.9985 3.86842 12.6205 3.86842V4.70176ZM16.0805 5.28676L15.9645 4.46155C14.7569 4.63138 13.4776 4.9181 12.2642 5.26867L12.4955 6.06926L12.7268 6.86985C13.8774 6.53742 15.0791 6.26914 16.1966 6.11197L16.0805 5.28676ZM12.4955 6.06926L12.264 5.26874C11.5045 5.48841 10.5601 5.47688 9.55103 5.29031L9.39952 6.10976L9.24801 6.9292C10.3969 7.14163 11.6265 7.18811 12.7271 6.86978L12.4955 6.06926ZM17.3795 8.64176L17.0044 7.89762L16.8814 7.95962L17.2565 8.70376L17.6316 9.4479L17.7546 9.3859L17.3795 8.64176ZM17.2565 8.70376L16.8812 7.95973C14.3142 9.25465 10.8748 9.25465 8.30785 7.95973L7.93252 8.70376L7.55719 9.44778C10.5962 10.9809 14.5928 10.9809 17.6318 9.44778L17.2565 8.70376ZM7.93252 8.70376L8.30902 7.96033L8.19252 7.90133L7.81602 8.64476L7.43951 9.38819L7.55601 9.44719L7.93252 8.70376ZM7.81602 8.64476L7.20013 8.08339C6.10091 9.28936 5.06216 10.7547 4.32007 12.2862C3.58274 13.8079 3.10714 15.4597 3.22116 17.0161C3.33838 18.6163 4.07977 20.072 5.66577 21.0948C7.20896 22.09 9.485 22.6336 12.62 22.6336V21.8003V20.9669C9.63978 20.9669 7.73126 20.4436 6.56905 19.6941C5.44963 18.9722 4.96477 18.0055 4.88337 16.8943C4.79876 15.7394 5.15217 14.3911 5.81994 13.013C6.48294 11.6447 7.42537 10.3104 8.4319 9.20612L7.81602 8.64476ZM12.62 21.8003V22.6336C15.757 22.6336 18.0308 22.0795 19.5687 21.0685C21.1485 20.03 21.8766 18.5576 21.9844 16.9512C22.0894 15.3868 21.6078 13.7312 20.8671 12.2156C20.1218 10.6905 19.0829 9.24252 17.988 8.07238L17.3795 8.64176L16.771 9.21113C17.7651 10.2735 18.7046 11.5865 19.3696 12.9473C20.0392 14.3175 20.3998 15.6724 20.3215 16.8396C20.246 17.9647 19.7653 18.9447 18.6532 19.6758C17.4992 20.4344 15.5983 20.9669 12.62 20.9669V21.8003ZM12.1005 12.8018V11.9684C11.6143 11.9684 11.148 12.1616 10.8042 12.5054L11.3934 13.0947L11.9827 13.6839C12.0139 13.6527 12.0563 13.6351 12.1005 13.6351V12.8018ZM11.3934 13.0947L10.8042 12.5054C10.4603 12.8492 10.2672 13.3155 10.2672 13.8018H11.1005H11.9338C11.9338 13.7576 11.9514 13.7152 11.9827 13.6839L11.3934 13.0947ZM11.1005 13.8018H10.2672C10.2672 14.288 10.4603 14.7543 10.8042 15.0981L11.3934 14.5089L11.9827 13.9196C11.9514 13.8884 11.9338 13.846 11.9338 13.8018H11.1005ZM11.3934 14.5089L10.8042 15.0981C11.148 15.4419 11.6143 15.6351 12.1005 15.6351V14.8018V13.9684C12.0563 13.9684 12.0139 13.9509 11.9827 13.9196L11.3934 14.5089ZM12.1005 14.8018H12.9338V12.8018H12.1005H11.2672V14.8018H12.1005ZM13.1005 11.8018H13.9338V11.3018H13.1005H12.2672V11.8018H13.1005ZM13.1005 11.3018V10.4684H12.1005V11.3018V12.1351H13.1005V11.3018ZM12.1005 11.3018H11.2672V11.8018H12.1005H12.9338V11.3018H12.1005ZM12.1005 11.8018V10.9684C11.3491 10.9684 10.6284 11.2669 10.097 11.7983L10.6863 12.3875L11.2756 12.9768C11.4944 12.758 11.7911 12.6351 12.1005 12.6351V11.8018ZM10.6863 12.3875L10.097 11.7983C9.56569 12.3296 9.26718 13.0503 9.26718 13.8018H10.1005H10.9338C10.9338 13.4923 11.0568 13.1956 11.2756 12.9768L10.6863 12.3875ZM10.1005 13.8018H9.26718C9.26718 14.5532 9.56569 15.2739 10.097 15.8052L10.6863 15.216L11.2756 14.6267C11.0568 14.4079 10.9338 14.1112 10.9338 13.8018H10.1005ZM10.6863 15.216L10.097 15.8052C10.6284 16.3366 11.3491 16.6351 12.1005 16.6351V15.8018V14.9684C11.7911 14.9684 11.4944 14.8455 11.2756 14.6267L10.6863 15.216ZM12.1005 15.8018H11.2672V17.8018H12.1005H12.9338V15.8018H12.1005ZM12.1005 17.8018V16.9684C12.0292 16.9684 11.9661 16.9235 11.9424 16.8566L11.157 17.1353L10.3716 17.4139C10.6239 18.125 11.3018 18.6351 12.1005 18.6351V17.8018ZM11.157 17.1353L11.9503 16.88C11.8957 16.7103 11.8076 16.5533 11.6913 16.4182L11.0599 16.9621L10.4285 17.5059C10.3994 17.4722 10.3774 17.4329 10.3637 17.3905L11.157 17.1353ZM11.0599 16.9621L11.6913 16.4182C11.5749 16.2831 11.4327 16.1728 11.2729 16.0936L10.903 16.8403L10.5331 17.5871C10.4931 17.5673 10.4576 17.5397 10.4285 17.5059L11.0599 16.9621ZM10.903 16.8403L11.2729 16.0936C11.1132 16.0145 10.9392 15.9682 10.7612 15.9575L10.7111 16.7893L10.661 17.6211C10.6165 17.6184 10.573 17.6069 10.5331 17.5871L10.903 16.8403ZM10.7111 16.7893L10.7612 15.9575C10.5833 15.9467 10.405 15.9718 10.2369 16.0312L10.5145 16.8169L10.7921 17.6027C10.7501 17.6175 10.7055 17.6238 10.661 17.6211L10.7111 16.7893ZM10.5145 16.8169L10.2369 16.0312C10.0688 16.0906 9.91429 16.1831 9.78256 16.3032L10.3441 16.919L10.9057 17.5347C10.8727 17.5647 10.8341 17.5878 10.7921 17.6027L10.5145 16.8169ZM10.3441 16.919L9.78256 16.3032C9.65084 16.4234 9.54455 16.5687 9.46997 16.7306L10.2269 17.0792L10.9838 17.4278C10.9652 17.4683 10.9386 17.5046 10.9057 17.5347L10.3441 16.919ZM10.2269 17.0792L9.46997 16.7306C9.39539 16.8926 9.35405 17.0678 9.34838 17.246L10.1813 17.2725L11.0142 17.299C11.0128 17.3435 11.0025 17.3873 10.9838 17.4278L10.2269 17.0792ZM10.1813 17.2725L9.34838 17.246C9.34271 17.4242 9.37284 17.6017 9.43698 17.768L10.2145 17.4683L10.9921 17.1685C11.0081 17.21 11.0156 17.2544 11.0142 17.299L10.1813 17.2725ZM10.2145 17.4683L9.42882 17.746C9.62411 18.2985 9.98594 18.7769 10.4645 19.1152L10.9456 18.4348L11.4267 17.7544C11.2296 17.615 11.0806 17.4181 11.0002 17.1905L10.2145 17.4683ZM10.9456 18.4348L10.4645 19.1152C10.943 19.4536 11.5146 19.6352 12.1007 19.6351L12.1005 18.8018L12.1004 17.9684C11.8591 17.9685 11.6237 17.8937 11.4267 17.7544L10.9456 18.4348ZM12.1005 18.8018H11.2672V19.3018H12.1005H12.9338V18.8018H12.1005ZM12.1005 19.3018V20.1351H13.1005V19.3018V18.4684H12.1005V19.3018ZM13.1005 19.3018H13.9338V18.8018H13.1005H12.2672V19.3018H13.1005ZM13.1005 18.8018V19.6351C13.852 19.6351 14.5726 19.3366 15.104 18.8052L14.5147 18.216L13.9255 17.6267C13.7067 17.8455 13.4099 17.9684 13.1005 17.9684V18.8018ZM14.5147 18.216L15.104 18.8052C15.6353 18.2739 15.9338 17.5532 15.9338 16.8018H15.1005H14.2672C14.2672 17.1112 14.1443 17.4079 13.9255 17.6267L14.5147 18.216ZM15.1005 16.8018H15.9338C15.9338 16.0503 15.6353 15.3296 15.104 14.7983L14.5147 15.3875L13.9255 15.9768C14.1443 16.1956 14.2672 16.4923 14.2672 16.8018H15.1005ZM14.5147 15.3875L15.104 14.7983C14.5726 14.2669 13.852 13.9684 13.1005 13.9684V14.8018V15.6351C13.4099 15.6351 13.7067 15.758 13.9255 15.9768L14.5147 15.3875ZM13.1005 14.8018H13.9338V12.8018H13.1005H12.2672V14.8018H13.1005ZM13.1005 12.8018V13.6351C13.1718 13.6351 13.2349 13.68 13.2586 13.7469L14.044 13.4683L14.8294 13.1896C14.5771 12.4785 13.8992 11.9684 13.1005 11.9684V12.8018ZM14.044 13.4683L13.2507 13.7235C13.3053 13.8932 13.3934 14.0502 13.5098 14.1853L14.1412 13.6414L14.7726 13.0976C14.8016 13.1314 14.8237 13.1706 14.8373 13.213L14.044 13.4683ZM14.1412 13.6414L13.5098 14.1853C13.6261 14.3204 13.7684 14.4308 13.9281 14.5099L14.298 13.7632L14.668 13.0164C14.7079 13.0362 14.7435 13.0638 14.7726 13.0976L14.1412 13.6414ZM14.298 13.7632L13.9281 14.5099C14.0879 14.589 14.2619 14.6353 14.4398 14.6461L14.4899 13.8142L14.54 12.9824C14.5845 12.9851 14.628 12.9967 14.668 13.0164L14.298 13.7632ZM14.4899 13.8142L14.4398 14.6461C14.6178 14.6568 14.7961 14.6317 14.9642 14.5723L14.6866 13.7866L14.4089 13.0008C14.451 12.986 14.4955 12.9797 14.54 12.9824L14.4899 13.8142ZM14.6866 13.7866L14.9642 14.5723C15.1323 14.5129 15.2867 14.4204 15.4185 14.3003L14.8569 13.6846L14.2954 13.0688C14.3283 13.0388 14.3669 13.0157 14.4089 13.0008L14.6866 13.7866ZM14.8569 13.6846L15.4185 14.3003C15.5502 14.1801 15.6565 14.0348 15.7311 13.8729L14.9741 13.5243L14.2172 13.1757C14.2359 13.1352 14.2624 13.0989 14.2954 13.0688L14.8569 13.6846ZM14.9741 13.5243L15.7311 13.8729C15.8056 13.711 15.847 13.5357 15.8527 13.3575L15.0197 13.331L14.1868 13.3045C14.1882 13.26 14.1986 13.2162 14.2172 13.1757L14.9741 13.5243ZM15.0197 13.331L15.8527 13.3575C15.8583 13.1793 15.8282 13.0018 15.7641 12.8355L14.9865 13.1353L14.209 13.435C14.1929 13.3935 14.1854 13.3491 14.1868 13.3045L15.0197 13.331ZM14.9865 13.1353L15.7722 12.8575C15.5769 12.305 15.2151 11.8266 14.7366 11.4883L14.2555 12.1687L13.7744 12.8492C13.9714 12.9885 14.1204 13.1854 14.2008 13.413L14.9865 13.1353ZM14.2555 12.1687L14.7366 11.4883C14.2581 11.15 13.6864 10.9683 13.1004 10.9684L13.1005 11.8018L13.1007 12.6351C13.342 12.6351 13.5773 12.7098 13.7744 12.8492L14.2555 12.1687ZM13.1005 15.8018H12.2672V17.8018H13.1005H13.9338V15.8018H13.1005ZM13.1005 17.8018V18.6351C13.5867 18.6351 14.0531 18.4419 14.3969 18.0981L13.8076 17.5089L13.2184 16.9196C13.1871 16.9509 13.1447 16.9684 13.1005 16.9684V17.8018ZM13.8076 17.5089L14.3969 18.0981C14.7407 17.7543 14.9338 17.288 14.9338 16.8018H14.1005H13.2672C13.2672 16.846 13.2496 16.8884 13.2184 16.9196L13.8076 17.5089ZM14.1005 16.8018H14.9338C14.9338 16.3155 14.7407 15.8492 14.3969 15.5054L13.8076 16.0947L13.2184 16.6839C13.2496 16.7152 13.2672 16.7576 13.2672 16.8018H14.1005ZM13.8076 16.0947L14.3969 15.5054C14.0531 15.1616 13.5867 14.9684 13.1005 14.9684V15.8018V16.6351C13.1447 16.6351 13.1871 16.6527 13.2184 16.6839L13.8076 16.0947Z" fill="white" mask="url(#path-1-inside-1_141_445)"/>
</svg>
