<svg width="21" height="21" viewBox="0 0 21 21" fill="none" xmlns="http://www.w3.org/2000/svg">
<path d="M10.4796 3.04065C10.5679 3.0407 10.6525 3.07588 10.715 3.13831L18.2091 10.6324L18.2491 10.6832C18.2841 10.7375 18.3034 10.8013 18.3029 10.8668C18.302 10.954 18.2668 11.0375 18.2052 11.0992C18.1434 11.161 18.0592 11.1961 17.9718 11.1969C17.886 11.1976 17.8038 11.1647 17.7413 11.1061L17.5001 10.8649L16.6456 10.0114V16.7067C16.6456 17.2371 16.4357 17.7466 16.0607 18.1217C15.6856 18.4968 15.1761 18.7067 14.6456 18.7067H6.31262C5.78233 18.7066 5.27358 18.4966 4.89856 18.1217C4.52349 17.7466 4.31262 17.2371 4.31262 16.7067V10.0114L3.21497 11.109L3.20911 11.1158C3.17838 11.1476 3.14134 11.1726 3.10071 11.1901C3.06004 11.2075 3.01606 11.217 2.9718 11.2174C2.92767 11.2178 2.88375 11.2097 2.8429 11.193C2.80194 11.1762 2.76481 11.151 2.73352 11.1198C2.70222 11.0885 2.67704 11.0513 2.66028 11.0104C2.64357 10.9695 2.63552 10.9256 2.63586 10.8815C2.63625 10.8372 2.64574 10.7932 2.66321 10.7526C2.68067 10.7119 2.70562 10.6749 2.73743 10.6442L2.74426 10.6383L4.41028 8.97131L10.2443 3.13831L10.2433 3.13733C10.3058 3.07497 10.3913 3.04065 10.4796 3.04065Z" fill="white" stroke="white"/>
</svg>
