<svg width="21" height="21" viewBox="0 0 21 21" fill="none" xmlns="http://www.w3.org/2000/svg">
<path d="M7.09595 12.2068H13.762C14.7343 12.2068 15.6671 12.5935 16.3547 13.281C17.0424 13.9686 17.429 14.9013 17.429 15.8738C17.429 16.4042 17.2181 16.9128 16.843 17.2878C16.4679 17.6629 15.9594 17.8738 15.429 17.8738H5.42896C4.89852 17.8738 4.38997 17.6629 4.01489 17.2878C3.63982 16.9128 3.42896 16.4042 3.42896 15.8738C3.42896 14.9013 3.81554 13.9686 4.50317 13.281C5.19079 12.5935 6.12356 12.2068 7.09595 12.2068ZM10.429 3.87378C11.1804 3.87378 11.9015 4.1725 12.4329 4.70386C12.9639 5.2351 13.2619 5.95561 13.262 6.70679C13.262 7.45816 12.9641 8.17936 12.4329 8.71069C11.9015 9.24205 11.1804 9.54077 10.429 9.54077C9.67751 9.54077 8.9564 9.24205 8.42505 8.71069C7.8938 8.17936 7.59595 7.45816 7.59595 6.70679C7.59603 5.95561 7.89398 5.2351 8.42505 4.70386C8.9564 4.1725 9.67751 3.87378 10.429 3.87378Z" stroke="white"/>
</svg>
