<svg width="21" height="21" viewBox="0 0 21 21" fill="none" xmlns="http://www.w3.org/2000/svg">
<g clip-path="url(#clip0_141_435)">
<mask id="path-1-inside-1_141_435" fill="white">
<path d="M11.0987 20.2554L11.0896 20.2571L11.0304 20.2863L11.0137 20.2896L11.0021 20.2863L10.9429 20.2571C10.934 20.2543 10.9273 20.2557 10.9229 20.2613L10.9196 20.2696L10.9054 20.6263L10.9096 20.6429L10.9179 20.6538L11.0046 20.7154L11.0171 20.7188L11.0271 20.7154L11.1137 20.6538L11.1237 20.6404L11.1271 20.6263L11.1129 20.2704C11.1107 20.2615 11.1059 20.2565 11.0987 20.2554ZM11.3196 20.1613L11.3087 20.1629L11.1546 20.2404L11.1462 20.2488L11.1437 20.2579L11.1587 20.6163L11.1629 20.6263L11.1696 20.6321L11.3371 20.7096C11.3476 20.7124 11.3557 20.7102 11.3612 20.7029L11.3646 20.6913L11.3362 20.1796C11.3334 20.1696 11.3279 20.1635 11.3196 20.1613ZM10.7237 20.1629C10.7201 20.1607 10.7157 20.16 10.7115 20.1609C10.7073 20.1619 10.7036 20.1644 10.7012 20.1679L10.6962 20.1796L10.6679 20.6913C10.6684 20.7013 10.6732 20.7079 10.6821 20.7113L10.6946 20.7096L10.8621 20.6321L10.8704 20.6254L10.8737 20.6163L10.8879 20.2579L10.8854 20.2479L10.8771 20.2396L10.7237 20.1629Z"/>
</mask>
<path d="M11.0987 20.2554L11.2508 19.2671L11.0849 19.2415L10.9198 19.2716L11.0987 20.2554ZM11.0896 20.2571L10.9106 19.2732L10.7729 19.2983L10.6474 19.3602L11.0896 20.2571ZM11.0304 20.2863L11.2265 21.2669L11.355 21.2412L11.4725 21.1832L11.0304 20.2863ZM11.0137 20.2896L10.739 21.2511L10.9721 21.3177L11.2098 21.2702L11.0137 20.2896ZM11.0021 20.2863L10.5599 21.1832L10.6407 21.223L10.7274 21.2478L11.0021 20.2863ZM10.9429 20.2571L11.385 19.3602L11.3153 19.3258L11.2412 19.3026L10.9429 20.2571ZM10.9229 20.2613L10.142 19.6366L10.0494 19.7523L9.9944 19.8899L10.9229 20.2613ZM10.9196 20.2696L9.99107 19.8982L9.92718 20.058L9.92035 20.2299L10.9196 20.2696ZM10.9054 20.6263L9.90618 20.5866L9.90049 20.7298L9.93525 20.8688L10.9054 20.6263ZM10.9096 20.6429L9.93942 20.8855L9.98993 21.0875L10.1169 21.2526L10.9096 20.6429ZM10.9179 20.6538L10.1253 21.2635L10.2164 21.3819L10.3381 21.4686L10.9179 20.6538ZM11.0046 20.7154L10.4248 21.5302L10.5722 21.6351L10.7469 21.6817L11.0046 20.7154ZM11.0171 20.7188L10.7594 21.685L11.049 21.7622L11.3333 21.6675L11.0171 20.7188ZM11.0271 20.7154L11.3433 21.6641L11.485 21.6169L11.6068 21.5302L11.0271 20.7154ZM11.1137 20.6538L11.6935 21.4686L11.8203 21.3783L11.9137 21.2538L11.1137 20.6538ZM11.1237 20.6404L11.9237 21.2404L12.0492 21.0731L12.0971 20.8695L11.1237 20.6404ZM11.1271 20.6263L12.1005 20.8553L12.1317 20.7226L12.1263 20.5865L11.1271 20.6263ZM11.1129 20.2704L12.1121 20.2307L12.108 20.1278L12.083 20.0279L11.1129 20.2704ZM11.3196 20.1613L11.5772 19.195L11.3747 19.141L11.1676 19.1729L11.3196 20.1613ZM11.3087 20.1629L11.1567 19.1746L11.0007 19.1986L10.8596 19.2695L11.3087 20.1629ZM11.1546 20.2404L10.7054 19.347L10.5614 19.4194L10.4475 19.5333L11.1546 20.2404ZM11.1462 20.2488L10.4391 19.5417L10.2513 19.7295L10.1814 19.9857L11.1462 20.2488ZM11.1437 20.2579L10.1789 19.9949L10.1381 20.1446L10.1446 20.2998L11.1437 20.2579ZM11.1587 20.6163L10.1596 20.6581L10.1671 20.8363L10.2357 21.0009L11.1587 20.6163ZM11.1629 20.6263L10.2398 21.0109L10.3293 21.2257L10.5044 21.3789L11.1629 20.6263ZM11.1696 20.6321L10.5111 21.3847L10.6192 21.4793L10.7496 21.5397L11.1696 20.6321ZM11.3371 20.7096L10.9171 21.6172L10.9972 21.6542L11.0826 21.6767L11.3371 20.7096ZM11.3612 20.7029L12.1538 21.3126L12.2703 21.1613L12.3228 20.9776L11.3612 20.7029ZM11.3646 20.6913L12.3261 20.966L12.3723 20.8041L12.363 20.636L11.3646 20.6913ZM11.3362 20.1796L12.3347 20.1243L12.3287 20.0162L12.2997 19.912L11.3362 20.1796ZM10.7237 20.1629L10.2054 21.0181L10.2402 21.0392L10.2765 21.0574L10.7237 20.1629ZM10.7012 20.1679L9.86951 19.6127L9.81838 19.6893L9.78209 19.774L10.7012 20.1679ZM10.6962 20.1796L9.77709 19.7857L9.70752 19.948L9.69775 20.1243L10.6962 20.1796ZM10.6679 20.6913L9.66942 20.636L9.66636 20.6914L9.66943 20.7467L10.6679 20.6913ZM10.6821 20.7113L10.3309 21.6476L10.5657 21.7356L10.8143 21.7025L10.6821 20.7113ZM10.6946 20.7096L10.8268 21.7008L10.977 21.6808L11.1145 21.6172L10.6946 20.7096ZM10.8621 20.6321L11.282 21.5397L11.392 21.4887L11.4867 21.413L10.8621 20.6321ZM10.8704 20.6254L11.4951 21.4063L11.7143 21.231L11.8102 20.9672L10.8704 20.6254ZM10.8737 20.6163L11.8135 20.958L11.8668 20.8115L11.8729 20.6558L10.8737 20.6163ZM10.8879 20.2579L11.8871 20.2974L11.8928 20.1543L11.858 20.0154L10.8879 20.2579ZM10.8854 20.2479L11.8555 20.0054L11.7883 19.7367L11.5925 19.5408L10.8854 20.2479ZM10.8771 20.2396L11.5842 19.5325L11.4694 19.4177L11.3243 19.3452L10.8771 20.2396ZM11.0987 20.2554L10.9198 19.2716L10.9106 19.2732L11.0896 20.2571L11.2685 21.241L11.2777 21.2393L11.0987 20.2554ZM11.0896 20.2571L10.6474 19.3602L10.5882 19.3893L11.0304 20.2863L11.4725 21.1832L11.5317 21.154L11.0896 20.2571ZM11.0304 20.2863L10.8343 19.3057L10.8176 19.309L11.0137 20.2896L11.2098 21.2702L11.2265 21.2669L11.0304 20.2863ZM11.0137 20.2896L11.2884 19.3281L11.2768 19.3247L11.0021 20.2863L10.7274 21.2478L10.739 21.2511L11.0137 20.2896ZM11.0021 20.2863L11.4442 19.3893L11.385 19.3602L10.9429 20.2571L10.5007 21.154L10.5599 21.1832L11.0021 20.2863ZM10.9429 20.2571L11.2412 19.3026C11.1313 19.2683 10.9475 19.2312 10.7273 19.2771C10.4855 19.3274 10.2825 19.461 10.142 19.6366L10.9229 20.2613L11.7038 20.886C11.5677 21.056 11.3703 21.1861 11.1351 21.2351C10.9216 21.2795 10.7456 21.2432 10.6446 21.2116L10.9429 20.2571ZM10.9229 20.2613L9.9944 19.8899L9.99107 19.8982L10.9196 20.2696L11.848 20.641L11.8514 20.6326L10.9229 20.2613ZM10.9196 20.2696L9.92035 20.2299L9.90618 20.5866L10.9054 20.6263L11.9046 20.666L11.9188 20.3093L10.9196 20.2696ZM10.9054 20.6263L9.93525 20.8688L9.93942 20.8855L10.9096 20.6429L11.8797 20.4004L11.8755 20.3837L10.9054 20.6263ZM10.9096 20.6429L10.1169 21.2526L10.1253 21.2635L10.9179 20.6538L11.7105 20.0441L11.7022 20.0332L10.9096 20.6429ZM10.9179 20.6538L10.3381 21.4686L10.4248 21.5302L11.0046 20.7154L11.5843 19.9006L11.4976 19.839L10.9179 20.6538ZM11.0046 20.7154L10.7469 21.6817L10.7594 21.685L11.0171 20.7188L11.2747 19.7525L11.2622 19.7492L11.0046 20.7154ZM11.0171 20.7188L11.3333 21.6675L11.3433 21.6641L11.0271 20.7154L10.7109 19.7667L10.7009 19.7701L11.0171 20.7188ZM11.0271 20.7154L11.6068 21.5302L11.6935 21.4686L11.1137 20.6538L10.534 19.839L10.4473 19.9006L11.0271 20.7154ZM11.1137 20.6538L11.9137 21.2538L11.9237 21.2404L11.1237 20.6404L10.3237 20.0405L10.3137 20.0538L11.1137 20.6538ZM11.1237 20.6404L12.0971 20.8695L12.1005 20.8553L11.1271 20.6263L10.1536 20.3972L10.1503 20.4114L11.1237 20.6404ZM11.1271 20.6263L12.1263 20.5865L12.1121 20.2307L11.1129 20.2704L10.1137 20.3102L10.1279 20.666L11.1271 20.6263ZM11.1129 20.2704L12.083 20.0279C12.0537 19.9104 11.9876 19.7353 11.8347 19.5734C11.6697 19.3987 11.4596 19.2992 11.2508 19.2671L11.0987 20.2554L10.9467 21.2438C10.7451 21.2128 10.541 21.1164 10.3807 20.9466C10.2325 20.7897 10.1699 20.6216 10.1427 20.513L11.1129 20.2704ZM11.3196 20.1613L11.1676 19.1729L11.1567 19.1746L11.3087 20.1629L11.4607 21.1513L11.4715 21.1497L11.3196 20.1613ZM11.3087 20.1629L10.8596 19.2695L10.7054 19.347L11.1546 20.2404L11.6037 21.1339L11.7579 21.0564L11.3087 20.1629ZM11.1546 20.2404L10.4475 19.5333L10.4391 19.5417L11.1462 20.2488L11.8533 20.9559L11.8617 20.9475L11.1546 20.2404ZM11.1462 20.2488L10.1814 19.9857L10.1789 19.9949L11.1437 20.2579L12.1085 20.521L12.111 20.5118L11.1462 20.2488ZM11.1437 20.2579L10.1446 20.2998L10.1596 20.6581L11.1587 20.6163L12.1579 20.5744L12.1429 20.2161L11.1437 20.2579ZM11.1587 20.6163L10.2357 21.0009L10.2398 21.0109L11.1629 20.6263L12.086 20.2416L12.0818 20.2316L11.1587 20.6163ZM11.1629 20.6263L10.5044 21.3789L10.5111 21.3847L11.1696 20.6321L11.828 19.8795L11.8214 19.8737L11.1629 20.6263ZM11.1696 20.6321L10.7496 21.5397L10.9171 21.6172L11.3371 20.7096L11.757 19.802L11.5895 19.7245L11.1696 20.6321ZM11.3371 20.7096L11.0826 21.6767C11.2076 21.7096 11.3983 21.7343 11.6169 21.674C11.8495 21.6099 12.0313 21.472 12.1538 21.3126L11.3612 20.7029L10.5686 20.0932C10.6856 19.9411 10.8606 19.808 11.0851 19.746C11.2957 19.6879 11.4771 19.7124 11.5916 19.7425L11.3371 20.7096ZM11.3612 20.7029L12.3228 20.9776L12.3261 20.966L11.3646 20.6913L10.403 20.4166L10.3997 20.4282L11.3612 20.7029ZM11.3646 20.6913L12.363 20.636L12.3347 20.1243L11.3362 20.1796L10.3378 20.2349L10.3661 20.7466L11.3646 20.6913ZM11.3362 20.1796L12.2997 19.912C12.2248 19.642 12.0026 19.3085 11.5772 19.195L11.3196 20.1613L11.0619 21.1275C10.8891 21.0814 10.7224 20.9858 10.5901 20.8402C10.4642 20.7017 10.4027 20.5552 10.3727 20.4472L11.3362 20.1796ZM10.7237 20.1629L11.242 19.3077C11.0179 19.1719 10.7501 19.1279 10.4945 19.1847L10.7115 20.1609L10.9284 21.1371C10.6812 21.192 10.4222 21.1495 10.2054 21.0181L10.7237 20.1629ZM10.7115 20.1609L10.4945 19.1847C10.2389 19.2415 10.015 19.3948 9.86951 19.6127L10.7012 20.1679L11.5329 20.7231C11.3922 20.9339 11.1756 21.0822 10.9284 21.1371L10.7115 20.1609ZM10.7012 20.1679L9.78209 19.774L9.77709 19.7857L10.6962 20.1796L11.6154 20.5736L11.6204 20.5619L10.7012 20.1679ZM10.6962 20.1796L9.69775 20.1243L9.66942 20.636L10.6679 20.6913L11.6664 20.7466L11.6947 20.2349L10.6962 20.1796ZM10.6679 20.6913L9.66943 20.7467C9.67779 20.8971 9.72246 21.0935 9.85583 21.2818C9.99167 21.4736 10.1703 21.5874 10.3309 21.6476L10.6821 20.7113L11.0332 19.7749C11.1849 19.8318 11.3568 19.9406 11.4879 20.1257C11.6165 20.3074 11.6586 20.4954 11.6664 20.6358L10.6679 20.6913ZM10.6821 20.7113L10.8143 21.7025L10.8268 21.7008L10.6946 20.7096L10.5623 19.7184L10.5498 19.72L10.6821 20.7113ZM10.6946 20.7096L11.1145 21.6172L11.282 21.5397L10.8621 20.6321L10.4421 19.7245L10.2746 19.802L10.6946 20.7096ZM10.8621 20.6321L11.4867 21.413L11.4951 21.4063L10.8704 20.6254L10.2457 19.8445L10.2374 19.8512L10.8621 20.6321ZM10.8704 20.6254L11.8102 20.9672L11.8135 20.958L10.8737 20.6163L9.93393 20.2745L9.93059 20.2837L10.8704 20.6254ZM10.8737 20.6163L11.8729 20.6558L11.8871 20.2974L10.8879 20.2579L9.88867 20.2184L9.87451 20.5768L10.8737 20.6163ZM10.8879 20.2579L11.858 20.0154L11.8555 20.0054L10.8854 20.2479L9.91526 20.4905L9.91776 20.5005L10.8879 20.2579ZM10.8854 20.2479L11.5925 19.5408L11.5842 19.5325L10.8771 20.2396L10.17 20.9467L10.1783 20.955L10.8854 20.2479ZM10.8771 20.2396L11.3243 19.3452L11.1709 19.2685L10.7237 20.1629L10.2765 21.0574L10.4298 21.134L10.8771 20.2396Z" fill="white" mask="url(#path-1-inside-1_141_435)"/>
<mask id="path-3-inside-2_141_435" fill="white">
<path d="M10.6046 2.54041C11.3512 2.54041 12.0746 2.63874 12.7629 2.82291L10.9912 4.59374C10.8568 4.72868 10.7383 4.87854 10.6379 5.04041H10.6046C9.45083 5.04041 8.32302 5.38252 7.36373 6.0235C6.40445 6.66447 5.65677 7.57552 5.21526 8.64142C4.77375 9.70732 4.65823 10.8802 4.88331 12.0118C5.10839 13.1433 5.66396 14.1827 6.47977 14.9985C7.29557 15.8143 8.33498 16.3699 9.46653 16.595C10.5981 16.8201 11.771 16.7045 12.8369 16.263C13.9028 15.8215 14.8138 15.0739 15.4548 14.1146C16.0958 13.1553 16.4379 12.0275 16.4379 10.8737V10.8404C16.599 10.7404 16.7476 10.6223 16.8837 10.4862L18.6554 8.7154C18.8396 9.40374 18.9379 10.1271 18.9379 10.8737C18.9379 15.4762 15.2071 19.2071 10.6046 19.2071C6.00206 19.2071 2.27122 15.4762 2.27122 10.8737C2.27122 6.27124 6.00206 2.54041 10.6046 2.54041ZM10.2596 6.72124C10.2596 7.43041 10.2246 8.14957 10.2629 8.85791L9.81289 9.30791C9.6581 9.4627 9.53531 9.64647 9.45153 9.84872C9.36776 10.051 9.32464 10.2677 9.32464 10.4867C9.32464 10.7056 9.36776 10.9223 9.45153 11.1246C9.53531 11.3268 9.6581 11.5106 9.81289 11.6654C9.96769 11.8202 10.1515 11.943 10.3537 12.0268C10.556 12.1105 10.7727 12.1537 10.9916 12.1537C11.2106 12.1537 11.4273 12.1105 11.6296 12.0268C11.8318 11.943 12.0156 11.8202 12.1704 11.6654L12.6204 11.2154C13.3287 11.2537 14.0471 11.2187 14.7571 11.2187C14.6912 12.0107 14.4003 12.7673 13.9186 13.3993C13.4369 14.0314 12.7844 14.5125 12.0383 14.7859C11.2921 15.0593 10.4833 15.1136 9.70729 14.9425C8.93126 14.7713 8.22036 14.3818 7.65843 13.8199C7.09651 13.2579 6.707 12.547 6.53584 11.771C6.36468 10.995 6.41901 10.1862 6.69242 9.44002C6.96584 8.69385 7.44693 8.04144 8.07897 7.55972C8.711 7.078 9.46761 6.78707 10.2596 6.72124ZM16.0246 2.64624C16.1767 2.7093 16.3067 2.81602 16.3982 2.95291C16.4897 3.08981 16.5386 3.25074 16.5387 3.41541V4.94041H18.0629C18.2277 4.94044 18.3888 4.98933 18.5258 5.0809C18.6628 5.17247 18.7696 5.30261 18.8326 5.45486C18.8957 5.60711 18.9122 5.77464 18.88 5.93626C18.8479 6.09789 18.7686 6.24636 18.6521 6.36291L15.7046 9.30707C15.5483 9.46336 15.3364 9.55119 15.1154 9.55124H13.1046L11.5812 11.0754C11.4249 11.2318 11.2128 11.3196 10.9916 11.3196C10.7705 11.3196 10.5584 11.2318 10.4021 11.0754C10.2457 10.919 10.1578 10.707 10.1578 10.4858C10.1578 10.2647 10.2457 10.0526 10.4021 9.89624L11.9262 8.37374V6.36207C11.9261 6.25251 11.9477 6.144 11.9896 6.04276C12.0315 5.94152 12.0929 5.84953 12.1704 5.77207L15.1162 2.82624C15.2328 2.70963 15.3813 2.6302 15.543 2.59801C15.7046 2.56583 15.8722 2.58232 16.0246 2.64541"/>
</mask>
<path d="M12.7629 2.82291L13.4698 3.53018L14.6957 2.30487L13.0214 1.85688L12.7629 2.82291ZM10.9912 4.59374L10.2843 3.88646L10.2827 3.88804L10.9912 4.59374ZM10.6379 5.04041V6.04041H11.1944L11.4877 5.56744L10.6379 5.04041ZM10.6046 5.04041V6.04041V5.04041ZM16.4379 10.8404L15.9105 9.99077L15.4379 10.2841V10.8404H16.4379ZM16.8837 10.4862L16.1768 9.77897L16.1766 9.77913L16.8837 10.4862ZM18.6554 8.7154L19.6214 8.45694L19.1737 6.78349L17.9485 8.00813L18.6554 8.7154ZM10.2596 6.72124H11.2596V5.63467L10.1767 5.72468L10.2596 6.72124ZM10.2629 8.85791L10.97 9.56501L11.2855 9.24947L11.2614 8.80387L10.2629 8.85791ZM9.32464 10.4867H10.3246H9.32464ZM10.3537 12.0268L9.97102 12.9506L10.3537 12.0268ZM12.6204 11.2154L12.6744 10.2169L12.2288 10.1928L11.9133 10.5083L12.6204 11.2154ZM14.7571 11.2187L15.7536 11.3016L15.8436 10.2187H14.7571V11.2187ZM16.5387 3.41541H17.5387V3.41466L16.5387 3.41541ZM16.5387 4.94041H15.5387V5.94041H16.5387V4.94041ZM18.0629 4.94041L18.0631 3.94041H18.0629V4.94041ZM18.6521 6.36291L19.3588 7.07041L19.3593 7.06991L18.6521 6.36291ZM15.7046 9.30707L14.9979 8.59957L14.9973 8.60007L15.7046 9.30707ZM15.1154 9.55124V10.5512L15.1156 10.5512L15.1154 9.55124ZM13.1046 9.55124V8.55124H12.6902L12.3973 8.84433L13.1046 9.55124ZM11.5812 11.0754L12.2883 11.7825L12.2885 11.7823L11.5812 11.0754ZM10.4021 9.89624L9.69534 9.18874L9.69495 9.18913L10.4021 9.89624ZM11.9262 8.37374L12.6329 9.08123L12.9262 8.78827V8.37374H11.9262ZM11.9262 6.36207H12.9262L12.9262 6.36129L11.9262 6.36207ZM12.1704 5.77207L12.8774 6.47929L12.8775 6.47918L12.1704 5.77207ZM15.1162 2.82624L15.8233 3.53335L15.8236 3.53312L15.1162 2.82624ZM10.6046 2.54041V3.54041C11.263 3.54041 11.8995 3.62708 12.5044 3.78893L12.7629 2.82291L13.0214 1.85688C12.2496 1.6504 11.4394 1.54041 10.6046 1.54041V2.54041ZM12.7629 2.82291L12.056 2.11563L10.2843 3.88647L10.9912 4.59374L11.6982 5.30101L13.4698 3.53018L12.7629 2.82291ZM10.9912 4.59374L10.2827 3.88804C10.0945 4.07696 9.92858 4.28677 9.78805 4.51337L10.6379 5.04041L11.4877 5.56744C11.548 5.47032 11.6191 5.3804 11.6997 5.29944L10.9912 4.59374ZM10.6379 5.04041V4.04041H10.6046V5.04041V6.04041H10.6379V5.04041ZM10.6046 5.04041V4.04041C9.25305 4.04041 7.9319 4.44117 6.80816 5.19203L7.36373 6.0235L7.9193 6.85497C8.71414 6.32388 9.64862 6.04041 10.6046 6.04041V5.04041ZM7.36373 6.0235L6.80816 5.19203C5.68443 5.94289 4.80858 7.01011 4.29138 8.25873L5.21526 8.64142L6.13914 9.0241C6.50496 8.14093 7.12446 7.38606 7.9193 6.85497L7.36373 6.0235ZM5.21526 8.64142L4.29138 8.25873C3.77418 9.50736 3.63886 10.8813 3.90253 12.2069L4.88331 12.0118L5.8641 11.8167C5.6776 10.8791 5.77332 9.90728 6.13914 9.0241L5.21526 8.64142ZM4.88331 12.0118L3.90253 12.2069C4.16619 13.5324 4.817 14.75 5.77266 15.7056L6.47977 14.9985L7.18688 14.2914C6.51092 13.6155 6.05059 12.7542 5.8641 11.8167L4.88331 12.0118ZM6.47977 14.9985L5.77266 15.7056C6.72832 16.6613 7.9459 17.3121 9.27144 17.5758L9.46653 16.595L9.66162 15.6142C8.72405 15.4277 7.86283 14.9674 7.18688 14.2914L6.47977 14.9985ZM9.46653 16.595L9.27144 17.5758C10.597 17.8394 11.9709 17.7041 13.2196 17.1869L12.8369 16.263L12.4542 15.3392C11.571 15.705 10.5992 15.8007 9.66162 15.6142L9.46653 16.595ZM12.8369 16.263L13.2196 17.1869C14.4682 16.6697 15.5354 15.7939 16.2863 14.6701L15.4548 14.1146L14.6233 13.559C14.0922 14.3538 13.3374 14.9733 12.4542 15.3392L12.8369 16.263ZM15.4548 14.1146L16.2863 14.6701C17.0371 13.5464 17.4379 12.2252 17.4379 10.8737H16.4379H15.4379C15.4379 11.8297 15.1544 12.7642 14.6233 13.559L15.4548 14.1146ZM16.4379 10.8737H17.4379V10.8404H16.4379H15.4379V10.8737H16.4379ZM16.4379 10.8404L16.9653 11.69C17.1925 11.549 17.4013 11.3829 17.5908 11.1933L16.8837 10.4862L16.1766 9.77913C16.0939 9.86182 16.0055 9.93184 15.9105 9.99077L16.4379 10.8404ZM16.8837 10.4862L17.5907 11.1935L19.3623 9.42268L18.6554 8.7154L17.9485 8.00813L16.1768 9.77897L16.8837 10.4862ZM18.6554 8.7154L17.6894 8.97387C17.8512 9.57879 17.9379 10.2153 17.9379 10.8737H18.9379H19.9379C19.9379 10.0389 19.8279 9.22869 19.6214 8.45694L18.6554 8.7154ZM18.9379 10.8737H17.9379C17.9379 14.924 14.6548 18.2071 10.6046 18.2071V19.2071V20.2071C15.7593 20.2071 19.9379 16.0285 19.9379 10.8737H18.9379ZM10.6046 19.2071V18.2071C6.55434 18.2071 3.27122 14.924 3.27122 10.8737H2.27122H1.27122C1.27122 16.0285 5.44977 20.2071 10.6046 20.2071V19.2071ZM2.27122 10.8737H3.27122C3.27122 6.82352 6.55434 3.54041 10.6046 3.54041V2.54041V1.54041C5.44977 1.54041 1.27122 5.71895 1.27122 10.8737H2.27122ZM10.2596 6.72124H9.25956C9.25956 7.36176 9.22424 8.17064 9.26435 8.91194L10.2629 8.85791L11.2614 8.80387C11.2249 8.1285 11.2596 7.49905 11.2596 6.72124H10.2596ZM10.2629 8.85791L9.55578 8.1508L9.10578 8.6008L9.81289 9.30791L10.52 10.015L10.97 9.56501L10.2629 8.85791ZM9.81289 9.30791L9.10578 8.6008C8.85813 8.84845 8.66168 9.14246 8.52765 9.46604L9.45153 9.84872L10.3754 10.2314C10.4089 10.1505 10.4581 10.0769 10.52 10.015L9.81289 9.30791ZM9.45153 9.84872L8.52765 9.46604C8.39362 9.78961 8.32464 10.1364 8.32464 10.4867H9.32464H10.3246C10.3246 10.3991 10.3419 10.3123 10.3754 10.2314L9.45153 9.84872ZM9.32464 10.4867H8.32464C8.32464 10.8369 8.39362 11.1837 8.52765 11.5073L9.45153 11.1246L10.3754 10.7419C10.3419 10.661 10.3246 10.5742 10.3246 10.4867H9.32464ZM9.45153 11.1246L8.52765 11.5073C8.66168 11.8308 8.85813 12.1249 9.10578 12.3725L9.81289 11.6654L10.52 10.9583C10.4581 10.8964 10.4089 10.8228 10.3754 10.7419L9.45153 11.1246ZM9.81289 11.6654L9.10578 12.3725C9.35344 12.6202 9.64745 12.8166 9.97102 12.9506L10.3537 12.0268L10.7364 11.1029C10.6555 11.0694 10.5819 11.0202 10.52 10.9583L9.81289 11.6654ZM10.3537 12.0268L9.97102 12.9506C10.2946 13.0847 10.6414 13.1537 10.9916 13.1537V12.1537V11.1537C10.904 11.1537 10.8173 11.1364 10.7364 11.1029L10.3537 12.0268ZM10.9916 12.1537V13.1537C11.3419 13.1537 11.6887 13.0847 12.0123 12.9506L11.6296 12.0268L11.2469 11.1029C11.166 11.1364 11.0792 11.1537 10.9916 11.1537V12.1537ZM11.6296 12.0268L12.0123 12.9506C12.3358 12.8166 12.6298 12.6202 12.8775 12.3725L12.1704 11.6654L11.4633 10.9583C11.4013 11.0202 11.3278 11.0694 11.2469 11.1029L11.6296 12.0268ZM12.1704 11.6654L12.8775 12.3725L13.3275 11.9225L12.6204 11.2154L11.9133 10.5083L11.4633 10.9583L12.1704 11.6654ZM12.6204 11.2154L12.5664 12.2139C13.3077 12.2541 14.1157 12.2187 14.7571 12.2187V11.2187V10.2187C13.9784 10.2187 13.3498 10.2534 12.6744 10.2169L12.6204 11.2154ZM14.7571 11.2187L13.7605 11.1359C13.7105 11.7378 13.4894 12.3128 13.1233 12.7932L13.9186 13.3993L14.7139 14.0055C15.3112 13.2218 15.672 12.2836 15.7536 11.3016L14.7571 11.2187ZM13.9186 13.3993L13.1233 12.7932C12.7571 13.2735 12.2613 13.6391 11.6942 13.8469L12.0383 14.7859L12.3823 15.7248C13.3076 15.3858 14.1166 14.7892 14.7139 14.0055L13.9186 13.3993ZM12.0383 14.7859L11.6942 13.8469C11.1271 14.0547 10.5125 14.096 9.92267 13.9659L9.70729 14.9425L9.49191 15.919C10.4542 16.1312 11.4571 16.0639 12.3823 15.7248L12.0383 14.7859ZM9.70729 14.9425L9.92267 13.9659C9.33289 13.8358 8.7926 13.5398 8.36554 13.1128L7.65843 13.8199L6.95133 14.527C7.64811 15.2238 8.52963 15.7068 9.49191 15.919L9.70729 14.9425ZM7.65843 13.8199L8.36554 13.1128C7.93848 12.6857 7.64245 12.1454 7.51237 11.5556L6.53584 11.771L5.55931 11.9864C5.77155 12.9487 6.25454 13.8302 6.95133 14.527L7.65843 13.8199ZM6.53584 11.771L7.51237 11.5556C7.38229 10.9658 7.42358 10.3512 7.63137 9.78407L6.69242 9.44002L5.75347 9.09596C5.41444 10.0212 5.34707 11.0241 5.55931 11.9864L6.53584 11.771ZM6.69242 9.44002L7.63137 9.78407C7.83917 9.21699 8.2048 8.72115 8.68514 8.35505L8.07897 7.55972L7.47279 6.76439C6.68907 7.36172 6.09251 8.17072 5.75347 9.09596L6.69242 9.44002ZM8.07897 7.55972L8.68514 8.35505C9.16549 7.98894 9.74051 7.76783 10.3424 7.7178L10.2596 6.72124L10.1767 5.72468C9.1947 5.8063 8.25651 6.16706 7.47279 6.76439L8.07897 7.55972ZM16.0246 2.64624L15.6416 3.56999C15.6111 3.55737 15.5851 3.53603 15.5668 3.50865L16.3982 2.95291L17.2295 2.39717C17.0282 2.09601 16.7422 1.86124 16.4076 1.72249L16.0246 2.64624ZM16.3982 2.95291L15.5668 3.50865C15.5485 3.48128 15.5387 3.44909 15.5387 3.41615L16.5387 3.41541L17.5387 3.41466C17.5385 3.05239 17.4309 2.69834 17.2295 2.39717L16.3982 2.95291ZM16.5387 3.41541H15.5387V4.94041H16.5387H17.5387V3.41541H16.5387ZM16.5387 4.94041V5.94041H18.0629V4.94041V3.94041H16.5387V4.94041ZM18.0629 4.94041L18.0627 5.94041C18.0297 5.9404 17.9975 5.93062 17.9701 5.91231L18.5258 5.0809L19.0814 4.2495C18.78 4.04805 18.4256 3.94048 18.0631 3.94041L18.0629 4.94041ZM18.5258 5.0809L17.9701 5.91231C17.9427 5.89399 17.9213 5.86796 17.9087 5.83751L18.8326 5.45486L19.7565 5.07221C19.6178 4.73726 19.3829 4.45096 19.0814 4.2495L18.5258 5.0809ZM18.8326 5.45486L17.9087 5.83751C17.8961 5.80707 17.8928 5.77356 17.8992 5.74123L18.88 5.93626L19.8608 6.1313C19.9315 5.77572 19.8952 5.40715 19.7565 5.07221L18.8326 5.45486ZM18.88 5.93626L17.8992 5.74123C17.9057 5.7089 17.9215 5.67921 17.9448 5.65591L18.6521 6.36291L19.3593 7.06991C19.6156 6.81351 19.7901 6.48688 19.8608 6.1313L18.88 5.93626ZM18.6521 6.36291L17.9454 5.6554L14.9979 8.59957L15.7046 9.30707L16.4113 10.0146L19.3588 7.07041L18.6521 6.36291ZM15.7046 9.30707L14.9973 8.60007C15.0286 8.56881 15.071 8.55125 15.1152 8.55124L15.1154 9.55124L15.1156 10.5512C15.6018 10.5511 16.068 10.3579 16.4118 10.0141L15.7046 9.30707ZM15.1154 9.55124V8.55124H13.1046V9.55124V10.5512H15.1154V9.55124ZM13.1046 9.55124L12.3973 8.84433L10.8739 10.3685L11.5812 11.0754L12.2885 11.7823L13.8119 10.2582L13.1046 9.55124ZM11.5812 11.0754L10.8741 10.3683C10.9053 10.3371 10.9476 10.3196 10.9916 10.3196V11.3196V12.3196C11.478 12.3196 11.9444 12.1264 12.2883 11.7825L11.5812 11.0754ZM10.9916 11.3196V10.3196C11.0357 10.3196 11.078 10.3371 11.1092 10.3683L10.4021 11.0754L9.69495 11.7825C10.0389 12.1264 10.5053 12.3196 10.9916 12.3196V11.3196ZM10.4021 11.0754L11.1092 10.3683C11.1403 10.3995 11.1578 10.4417 11.1578 10.4858H10.1578H9.15784C9.15784 10.9722 9.35105 11.4386 9.69495 11.7825L10.4021 11.0754ZM10.1578 10.4858H11.1578C11.1578 10.5299 11.1403 10.5722 11.1092 10.6033L10.4021 9.89624L9.69495 9.18913C9.35105 9.53303 9.15784 9.99947 9.15784 10.4858H10.1578ZM10.4021 9.89624L11.1088 10.6037L12.6329 9.08123L11.9262 8.37374L11.2195 7.66624L9.69534 9.18874L10.4021 9.89624ZM11.9262 8.37374H12.9262V6.36207H11.9262H10.9262V8.37374H11.9262ZM11.9262 6.36207L12.9262 6.36129C12.9262 6.3832 12.9219 6.4049 12.9136 6.42515L11.9896 6.04276L11.0656 5.66037C10.9734 5.8831 10.926 6.12181 10.9262 6.36286L11.9262 6.36207ZM11.9896 6.04276L12.9136 6.42515C12.9052 6.44539 12.8929 6.46379 12.8774 6.47929L12.1704 5.77207L11.4634 5.06486C11.2929 5.23528 11.1577 5.43764 11.0656 5.66037L11.9896 6.04276ZM12.1704 5.77207L12.8775 6.47918L15.8233 3.53335L15.1162 2.82624L14.4091 2.11913L11.4633 5.06497L12.1704 5.77207ZM15.1162 2.82624L15.8236 3.53312C15.8002 3.55645 15.7705 3.57233 15.7382 3.57877L15.543 2.59801L15.3477 1.61726C14.992 1.68808 14.6653 1.86281 14.4089 2.11935L15.1162 2.82624ZM15.543 2.59801L15.7382 3.57877C15.7059 3.58521 15.6723 3.58191 15.6419 3.56929L16.0246 2.64541L16.4072 1.72152C16.0721 1.58273 15.7034 1.54645 15.3477 1.61726L15.543 2.59801Z" fill="white" mask="url(#path-3-inside-2_141_435)"/>
</g>
<defs>
<clipPath id="clip0_141_435">
<rect width="20" height="20" fill="white" transform="translate(0.604553 0.873779)"/>
</clipPath>
</defs>
</svg>
