<svg width="21" height="21" viewBox="0 0 21 21" fill="none" xmlns="http://www.w3.org/2000/svg">
<path d="M8.56689 9.70679H13.1519C13.6807 9.70679 14.1108 10.1369 14.1108 10.6658V14.6228C14.1108 15.4849 13.7683 16.312 13.1587 16.9216C12.5491 17.5313 11.722 17.8738 10.8599 17.8738C9.99769 17.8738 9.17068 17.5313 8.56104 16.9216C7.9514 16.312 7.60889 15.485 7.60889 14.6228V10.6658C7.60889 10.1368 8.03756 9.70698 8.56689 9.70679ZM17.7319 9.70679C18.2608 9.70679 18.6909 10.1369 18.6909 10.6658V13.3738C18.691 13.8081 18.5908 14.2371 18.3989 14.6267C18.207 15.0162 17.9278 15.3562 17.5835 15.6208C17.2392 15.8855 16.8384 16.0679 16.4126 16.1531C16.1747 16.2006 15.9325 16.216 15.6919 16.2019C15.8256 15.7927 15.9109 15.3615 15.936 14.9138V14.9001L15.9438 14.6375V10.6658C15.9438 10.3295 15.8852 10.006 15.7759 9.70679H17.7319ZM5.94482 9.70679C5.85857 9.94312 5.80357 10.1912 5.78467 10.4451L5.78369 10.4519V10.4597L5.7749 10.6423V14.6228C5.7749 15.1735 5.86435 15.7038 6.02686 16.2009C5.97068 16.2042 5.91351 16.2057 5.85596 16.2058C5.48426 16.2056 5.11635 16.1332 4.77295 15.991C4.4292 15.8485 4.11708 15.6398 3.854 15.3767C3.59097 15.1136 3.38209 14.8015 3.23975 14.4578C3.0974 14.1139 3.02383 13.7449 3.02393 13.3728V10.6658C3.02393 10.4254 3.11407 10.1932 3.27686 10.0164C3.43942 9.83982 3.66275 9.73083 3.90186 9.71069L4.00342 9.70679H5.94482ZM5.44092 4.70679C5.86065 4.70687 6.26322 4.8739 6.56006 5.17065C6.85699 5.46759 7.02393 5.87085 7.02393 6.29077C7.02384 6.71058 6.85691 7.11306 6.56006 7.40991C6.2632 7.70677 5.86073 7.87369 5.44092 7.87378C5.02099 7.87378 4.61773 7.70684 4.3208 7.40991C4.02405 7.11307 3.85702 6.7105 3.85693 6.29077C3.85693 5.87085 4.02387 5.46759 4.3208 5.17065C4.61773 4.87372 5.02099 4.70679 5.44092 4.70679ZM10.8569 3.87378C11.3873 3.87378 11.8959 4.08475 12.271 4.45972C12.6461 4.83479 12.8569 5.34335 12.8569 5.87378C12.8569 6.40421 12.6461 6.91277 12.271 7.28784C11.8959 7.66281 11.3873 7.87378 10.8569 7.87378C10.3266 7.87369 9.81787 7.66284 9.44287 7.28784C9.0679 6.91278 8.85693 6.40414 8.85693 5.87378C8.85693 5.34342 9.0679 4.83477 9.44287 4.45972C9.81787 4.08472 10.3266 3.87387 10.8569 3.87378ZM16.2739 4.70679C16.6937 4.70679 17.0962 4.87392 17.3931 5.17065C17.69 5.46759 17.8569 5.87085 17.8569 6.29077C17.8568 6.71058 17.6899 7.11306 17.3931 7.40991C17.0961 7.70674 16.6938 7.87378 16.2739 7.87378C15.8541 7.87378 15.4517 7.70674 15.1548 7.40991C14.8579 7.11306 14.691 6.71058 14.6909 6.29077C14.6909 5.87085 14.8579 5.46759 15.1548 5.17065C15.4517 4.87393 15.8542 4.70679 16.2739 4.70679Z" stroke="white"/>
</svg>
